Coordinates
version=1
nRows=19
nColumns=33
inDegrees=yes

Units are S.I. units (second, meters, Newtons, ...)
Angles are in degrees.

endheader
time	ground_thorax_rot_x	ground_thorax_rot_y	ground_thorax_rot_z	ground_thorax_tx	ground_thorax_ty	ground_thorax_tz	clav_prot_r	clav_elev_r	scapula_abduction_r	scapula_elevation_r	scapula_upward_rot_r	scapula_winging_r	shoulder_elv_r	plane_of_elev_r	axial_rot_r	elbow_flexion_r	pro_sup_r	wrist_flex_r	wrist_dev_r	clav_prot_l	clav_elev_l	scapula_abduction_l	scapula_elevation_l	scapula_upward_rot_l	scapula_winging_l	shoulder_elv_l	plane_of_elev_l	axial_rot_l	elbow_flexion_l	pro_sup_l	wrist_flex_l	wrist_dev_l
      6.29000000	     39.51356792	     11.66152506	     14.95180557	   -228.47382889	    840.64768880	      6.16266514	     12.28958306	     38.85336203	     37.91188734	     45.00000000	    -33.88995896	   1709.52895544	  -2812.44776899	     33.59899393	     46.61565283	   1811.86745342	      5.64322396	     19.44544128	      7.92736261	      8.20641577	    -45.00000000	    -35.99696083	     45.00000000	    -45.00000000	  -2420.83573605	    436.70273540	     20.57145201	    -60.71117600	    382.78497432	    149.40268515	     -0.68735963	     -9.53016905
      6.30000000	     39.45061288	     11.95135610	     15.25825153	   -226.48527841	    839.79474475	      6.08399873	     11.72461421	     38.65235703	     37.75754563	     45.00000000	    -33.40499372	   1709.97419344	  -2812.33975098	     33.13717116	     46.30645348	   1811.93887978	      5.07198663	     19.42175800	      8.09877564	      8.59001379	    -45.00000000	    -36.16771959	     45.00000000	    -45.00000000	  -2420.89534355	    436.58252198	     20.66628688	    -60.61426769	    382.70576745	    150.11541013	     -0.77680523	     -9.53655825
      6.31000000	     39.46893791	     12.00867304	     15.35223088	   -224.37603494	    838.85492193	      5.99785565	     11.94795346	     38.81911952	     37.88413246	     45.00000000	    -33.14782971	   1709.93498621	  -2812.48687895	     33.20921159	     46.30307186	   1811.87479706	      4.54598467	     19.37234510	      8.34813384	      8.41234744	    -45.00000000	    -36.09873454	     45.00000000	    -45.00000000	  -2421.20258728	    436.55756731	     20.73400444	    -60.32059637	    382.76209344	    150.91261804	     -0.84402404	     -9.48875927
      6.32000000	     39.54502009	     11.96582915	     15.39243256	   -222.15247838	    837.82667916	      5.90574049	     12.22660740	     38.99724664	     38.16117628	     45.00000000	    -32.97441826	   1709.71600634	  -2812.75574935	     33.44594100	     46.32280569	   1811.77751687	      3.99008152	     19.29759195	      8.61071672	      8.24768985	    -45.00000000	    -36.01445841	     45.00000000	    -45.00000000	  -2421.47773682	    436.46094927	     20.86355825	    -60.04459259	    382.78774448	    151.80547591	     -0.90895876	     -9.44286890
      6.33000000	     39.55782999	     12.04017298	     15.50732047	   -219.81389323	    836.70655082	      5.80926564	     12.29906576	     39.10780360	     38.26196410	     45.00000000	    -32.67447307	   1709.68367737	  -2812.95159860	     33.52144362	     46.28613160	   1811.69705122	      3.45140866	     19.21661982	      8.85714746	      8.21116089	    -45.00000000	    -36.03752827	     45.00000000	    -45.00000000	  -2421.75616342	    436.34522233	     20.93232644	    -59.84654371	    382.77144453	    152.70437722	     -0.99434961	     -9.41554423
      6.34000000	     39.55135850	     12.11561510	     15.66459327	   -217.36162184	    835.49345701	      5.71097588	     12.46558704	     39.26076673	     38.39718369	     45.00000000	    -32.40369695	   1709.68866239	  -2813.14708311	     33.53160116	     46.27890410	   1811.69951401	      2.94826399	     19.15468626	      9.10702642	      8.06976110	    -45.00000000	    -36.05358953	     45.00000000	    -44.83978689	  -2422.02060972	    436.26239648	     20.92971214	    -59.63656823	    382.81422954	    153.63236140	     -1.09626950	     -9.37691937
      6.35000000	     39.55340312	     12.22586184	     15.77793728	   -214.79715240	    834.18799730	      5.61316473	     12.63506041	     39.41304715	     38.49935489	     45.00000000	    -32.13321858	   1709.71686977	  -2813.30785214	     33.51256732	     46.25620589	   1811.66830585	      2.49618084	     19.07822060	      9.36613656	      7.92717540	    -45.00000000	    -36.09711918	     45.00000000	    -44.56002585	  -2422.31364705	    436.18276920	     20.93308594	    -59.56420057	    382.86509367	    154.55279984	     -1.20322675	     -9.33839145
      6.36000000	     39.52423751	     12.30794021	     15.99672186	   -212.11849362	    832.79240870	      5.52119894	     12.55100656	     39.45261653	     38.58362398	     45.00000000	    -31.80185034	   1709.81280314	  -2813.49810488	     33.49899248	     46.29314036	   1811.63980788	      2.14061652	     18.98650558	      9.58601614	      7.97855556	    -45.00000000	    -36.13543433	     45.00000000	    -44.49223356	  -2422.56664318	    436.01885399	     20.95770615	    -59.31881137	    382.79903700	    155.45609866	     -1.30104362	     -9.32885109
      6.37000000	     39.51234223	     12.43771403	     16.11420695	   -209.33495614	    831.31318523	      5.43556133	     12.66208248	     39.56083737	     38.68955479	     45.00000000	    -31.53239810	   1709.87441789	  -2813.66246635	     33.44480051	     46.29501941	   1811.59515604	      1.86767000	     18.89400150	      9.82076296	      7.86514770	    -45.00000000	    -36.19639949	     45.00000000	    -44.21137914	  -2422.87334318	    435.89864240	     20.96777699	    -59.28289488	    382.83790331	    156.29985952	     -1.43992927	     -9.31282289
      6.38000000	     39.47781591	     12.52297938	     16.28678698	   -206.45631519	    829.75816092	      5.35453851	     12.42963402	     39.52432898	     38.70781068	     45.00000000	    -31.19101012	   1710.09218006	  -2813.80768798	     33.39765649	     46.21811048	   1811.50130197	      1.68837610	     18.77125213	     10.02778961	      8.00470616	    -45.00000000	    -36.29876107	     45.00000000	    -43.81525077	  -2423.10026194	    435.64331681	     20.96666909	    -59.36244147	    382.70062359	    156.99867852	     -1.57513741	     -9.35388825
      6.39000000	     39.44060407	     12.68095235	     16.51817124	   -203.49940637	    828.13687974	      5.27428823	     12.70925894	     39.69232952	     38.86566230	     45.00000000	    -30.95773538	   1710.08240432	  -2814.05722985	     33.34447575	     46.38145029	   1811.52663499	      1.57861431	     18.69144148	     10.23265895	      7.76630378	    -45.00000000	    -36.24207547	     45.00000000	    -43.77189961	  -2423.44381338	    435.55954176	     21.00933727	    -59.16867149	    382.74209702	    157.72379699	     -1.70843508	     -9.34305687
      6.40000000	     39.38197105	     12.79601094	     16.78840786	   -200.47010162	    826.45578189	      5.19650573	     13.21787600	     39.98018790	     39.09919732	     45.00000000	    -30.73322485	   1710.14955690	  -2814.30665076	     33.19615505	     46.61820035	   1811.54607873	      1.49001657	     18.61664008	     10.45024040	      7.34501135	    -45.00000000	    -36.15909992	     45.00000000	    -43.50180455	  -2423.82203796	    435.48011049	     20.88480996	    -59.12032927	    382.76060250	    158.47877675	     -1.87858578	     -9.34562042
      6.41000000	     39.30844506	     12.90815959	     17.06658312	   -197.36646247	    824.71545029	      5.12204245	     13.38686130	     40.07491025	     39.23617035	     45.00000000	    -30.47073312	   1710.28905027	  -2814.51190928	     33.06395094	     46.84393374	   1811.56798465	      1.39763901	     18.52153351	     10.62759082	      7.18672451	    -45.00000000	    -36.12616238	     45.00000000	    -43.39297547	  -2424.15803093	    435.33656194	     20.86868044	    -58.99891691	    382.69465383	    159.15090526	     -2.05335443	     -9.38715530
      6.42000000	     39.24722386	     13.08296779	     17.28552371	   -194.19663242	    822.92255891	      5.05556001	     13.26382940	     40.09027053	     39.26307704	     45.00000000	    -30.33744882	   1710.33783752	  -2814.76781834	     33.15083012	     46.94830210	   1811.47266816	      1.31903248	     18.37617959	     10.81874570	      7.30076656	    -45.00000000	    -36.20879355	     45.00000000	    -43.22551587	  -2424.46205279	    435.06702362	     20.92635684	    -58.97555904	    382.64929060	    159.55475933	     -2.19420445	     -9.44094360
      6.43000000	     39.13246687	     13.24944803	     17.54430965	   -190.94924647	    821.07112421	      5.00162981	     12.97604773	     40.01186141	     39.18334053	     45.00000000	    -30.14193828	   1710.49712334	  -2814.96536555	     33.17644586	     47.09253452	   1811.48470914	      1.27172114	     18.25008623	     10.99586581	      7.50074866	    -45.00000000	    -36.30053085	     45.00000000	    -43.05528079	  -2424.69957755	    434.83730201	     21.03845262	    -59.01795212	    382.54801325	    159.72019391	     -2.33931245	     -9.54103603
      6.44000000	     38.98436913	     13.51067575	     18.01334085	   -187.61745700	    819.15809450	      4.96573084	     12.66747861	     39.91033353	     39.25045528	     45.00000000	    -30.03330244	   1710.79254917	  -2815.14136280	     32.97607951	     47.24525641	   1811.42408282	      1.28682687	     18.11180175	     11.19623386	      7.67093427	    -45.00000000	    -36.25278931	     45.00000000	    -43.12911289	  -2424.95782376	    434.57196392	     21.12686652	    -58.88191582	    382.28912188	    159.74032965	     -2.44376969	     -9.68249836
      6.45000000	     38.87813769	     13.73071688	     18.35053196	   -184.21446607	    817.18839988	      4.94751080	     12.86580564	     39.97411088	     39.30864435	     45.00000000	    -29.96537245	   1710.93800737	  -2815.36338505	     32.92443154	     47.42527986	   1811.37733244	      1.36682854	     17.99650030	     11.38570569	      7.51539830	    -45.00000000	    -36.17718017	     45.00000000	    -43.11754631	  -2425.31597496	    434.38243099	     21.16477701	    -58.78556187	    382.24020402	    159.56434161	     -2.63287511	     -9.82077338
      6.46000000	     38.75596976	     13.98397071	     18.78387788	   -180.74566393	    815.16237600	      4.94373948	     12.97437489	     40.01721150	     39.27226545	     45.00000000	    -29.89129315	   1711.13506315	  -2815.55389020	     32.92016815	     47.63071287	   1811.30504246	      1.52285552	     17.87734387	     11.57425745	      7.43321741	    -45.00000000	    -36.13317563	     45.00000000	    -43.32476978	  -2425.68276934	    434.20277458	     21.18432679	    -58.61699931	    382.15497512	    159.17523639	     -2.82028306	     -9.99369957
      6.47000000	     38.69423899	     14.00266683	     18.90735641	   -177.22186381	    813.08398070	      4.95258076	     13.32463007	     40.23070863	     39.52465631	     45.00000000	    -29.74011380	   1711.03724208	  -2815.97929467	     32.97919471	     47.89165071	   1811.29600548	      1.78565570	     17.78777787	     11.76401055	      7.20812330	    -45.00000000	    -36.12290273	     45.00000000	    -43.07664643	  -2426.08507249	    433.98065436	     21.16038178	    -58.44495045	    382.18089675	    158.47485979	     -3.05306106	    -10.18991076
